<svg width="17" height="18" viewBox="0 0 17 18" fill="none" xmlns="http://www.w3.org/2000/svg">
    <path d="M9.8421 0V7.2H17C17 5.29044 16.2459 3.45909 14.9035 2.10883C13.5611 0.758569 11.7405 0 9.8421 0ZM15.4968 12.501C16.4363 11.286 17 9.756 17 8.1H3.97263L3.13158 6.3H0V8.1H1.98632C1.98632 8.1 3.67737 11.763 3.88316 12.078C2.89895 12.6 2.23684 13.653 2.23684 14.85C2.23684 15.6854 2.56678 16.4866 3.15406 17.0774C3.74135 17.6681 4.53787 18 5.36842 18C6.94316 18 8.24947 16.83 8.46421 15.3H10.3253C10.54 16.83 11.8463 18 13.4211 18C14.2516 18 15.0481 17.6681 15.6354 17.0774C16.2227 16.4866 16.5526 15.6854 16.5526 14.85C16.5526 13.914 16.1411 13.077 15.4968 12.501ZM5.36842 16.2C5.01247 16.2 4.6711 16.0578 4.41941 15.8046C4.16772 15.5514 4.02632 15.208 4.02632 14.85C4.02632 14.492 4.16772 14.1486 4.41941 13.8954C4.6711 13.6422 5.01247 13.5 5.36842 13.5C5.72437 13.5 6.06574 13.6422 6.31743 13.8954C6.56913 14.1486 6.71053 14.492 6.71053 14.85C6.71053 15.208 6.56913 15.5514 6.31743 15.8046C6.06574 16.0578 5.72437 16.2 5.36842 16.2ZM13.4211 16.2C13.0651 16.2 12.7237 16.0578 12.472 15.8046C12.2203 15.5514 12.0789 15.208 12.0789 14.85C12.0789 14.492 12.2203 14.1486 12.472 13.8954C12.7237 13.6422 13.0651 13.5 13.4211 13.5C13.777 13.5 14.1184 13.6422 14.3701 13.8954C14.6218 14.1486 14.7632 14.492 14.7632 14.85C14.7632 15.208 14.6218 15.5514 14.3701 15.8046C14.1184 16.0578 13.777 16.2 13.4211 16.2Z" fill="#B3B3B3"/>
</svg>
