<svg width="116" height="97" viewBox="0 0 116 97" fill="none" xmlns="http://www.w3.org/2000/svg">
    <rect width="114" height="93.3" fill="black" fill-opacity="0" transform="translate(1 2)"/>
    <path d="M63.2 93.1998H62.9L62.6 93.3998L60.6 94.7998C60.1 95.0998 59.5 95.2998 58.9 95.2998H57.1C56.5 95.2998 55.9 95.0998 55.4 94.7998L53.4 93.3998L53.1 93.1998H52.8H2C1.4 93.1998 1 92.7998 1 92.1998V17.2998C1 16.6998 1.4 16.2998 2 16.2998H114C114.6 16.2998 115 16.6998 115 17.2998V92.1998C115 92.7998 114.6 93.1998 114 93.1998H63.2Z" fill="#D1D8FF" stroke="#1A3EFF" stroke-width="2"/>
    <path d="M58 88.1V10H6V88.1H58Z" fill="white" stroke="#1A3EFF" stroke-width="2"/>
    <path d="M58 86.9004V9.90039L10 5.90039V84.0004L56.9 87.8004C57.5 88.0004 58 87.6004 58 86.9004Z" fill="white" stroke="#1A3EFF" stroke-width="2"/>
    <path d="M43.9 6.40039C42.5 8.80039 44.5 11.0004 44.5 11.0004C44.5 11.0004 47 13.7004 44.5 16.4004C42 19.1004 44.5 21.8004 44.5 21.8004C44.5 21.8004 47 24.5004 44.5 27.2004C42 29.9004 44.5 32.6004 44.5 32.6004C44.5 32.6004 47 35.3004 44.5 38.0004C42 40.7004 44.5 43.4004 44.5 43.4004C44.5 43.4004 47 46.1004 44.5 48.8004C42 51.5004 44.5 54.2004 44.5 54.2004C44.5 54.2004 47 56.9004 44.5 59.6004C42 62.3004 44.5 65.0004 44.5 65.0004C44.5 65.0004 47 67.7004 44.5 70.4004C42 73.1004 44.5 75.8004 44.5 75.8004C44.5 75.8004 47 78.5004 44.5 81.2004C43.6 82.2004 43.3 83.2004 43.4 84.1004L56.8 87.6004C57.4 87.8004 58.1 87.3004 58.1 86.6004V10.0004L43.9 6.40039Z" fill="#D1D8FF" stroke="#1A3EFF" stroke-width="2"/>
    <path d="M110 88.1V10H58V88.1H110Z" fill="white" stroke="#1A3EFF" stroke-width="2"/>
    <path d="M59.1 87.9L106 84.1V6L58 10V87C58 87.6 58.5 88 59.1 87.9Z" fill="white" stroke="#1A3EFF" stroke-width="2"/>
    <path d="M59.3 87.7L102 80.1V2L58 10V86.8C58 87.4 58.6 87.9 59.3 87.7Z" fill="white" stroke="#1A3EFF" stroke-width="2"/>
    <path d="M64.8 17.8996V43.0996L94.1 37.7996V12.5996L64.8 17.8996Z" fill="#D1D8FF"/>
    <path d="M64.8 51.4998L94.1 46.2998" stroke="#1A3EFF" stroke-width="2"/>
    <path d="M64.8 56.8004L75.4 54.9004" stroke="#1A3EFF" stroke-width="2"/>
    <rect width="25.8" height="15.3" fill="black" fill-opacity="0" transform="translate(14.3 37.4004)"/>
    <path d="M19 48.7004V46.4004L14.3 45.5004V43.6004L19.2 37.4004L21 37.8004V45.0004L22.4 45.3004V47.2004L21 46.9004V49.2004L19 48.7004ZM19 44.5004V40.6004L16.4 44.0004L19 44.5004Z" fill="#D1D8FF"/>
    <path d="M27.2 39.0006C28.3 39.2006 29.2 39.8006 29.8 40.7006C30.5 41.8006 30.9 43.4006 30.9 45.5006C30.9 47.7006 30.5 49.1006 29.8 49.9006C29.2 50.6006 28.3 50.8006 27.2 50.6006C26.1 50.4006 25.2 49.8006 24.5 48.8006C23.8 47.8006 23.5 46.2006 23.5 44.1006C23.5 42.0006 23.9 40.5006 24.6 39.7006C25.3 39.0006 26.1 38.7006 27.2 39.0006ZM27.2 40.8006C26.9 40.7006 26.7 40.8006 26.5 40.9006C26.3 41.0006 26.1 41.3006 26 41.7006C25.9 42.2006 25.8 43.2006 25.8 44.5006C25.8 45.8006 25.9 46.8006 26 47.3006C26.1 47.8006 26.3 48.2006 26.5 48.4006C26.7 48.6006 26.9 48.7006 27.2 48.8006C27.5 48.9006 27.7 48.8006 27.9 48.7006C28.1 48.6006 28.3 48.3006 28.4 47.9006C28.5 47.4006 28.6 46.4006 28.6 45.1006C28.6 43.8006 28.5 42.8006 28.4 42.3006C28.3 41.8006 28.1 41.4006 27.9 41.2006C27.7 41.0006 27.5 40.8006 27.2 40.8006Z" fill="#D1D8FF"/>
    <path d="M36.6 52.2004V49.9004L32 49.0004V47.1004L36.9 40.9004L38.7 41.3004V48.5004L40.1 48.8004V50.7004L38.7 50.4004V52.7004L36.6 52.2004ZM36.6 48.0004V44.1004L34 47.5004L36.6 48.0004Z" fill="#D1D8FF"/>
</svg>
