<svg width="24" height="24" viewBox="0 0 24 24" fill="none" xmlns="http://www.w3.org/2000/svg">
    <path d="M1.7326 12.3891C1.59237 12.2479 1.4658 12.1174 1.3539 12C1.4658 11.8826 1.59237 11.7521 1.7326 11.6109C2.36289 10.9762 3.26323 10.1311 4.34325 9.28838C6.54387 7.5712 9.31845 6 12 6C14.6815 6 17.4561 7.5712 19.6568 9.28838C20.7368 10.1311 21.6371 10.9762 22.2674 11.6109C22.4076 11.7521 22.5342 11.8826 22.6461 12C22.5342 12.1174 22.4076 12.2479 22.2674 12.3891C21.6371 13.0238 20.7368 13.8689 19.6568 14.7116C17.4561 16.4288 14.6815 18 12 18C9.31845 18 6.54387 16.4288 4.34325 14.7116C3.26323 13.8689 2.36289 13.0238 1.7326 12.3891Z" stroke="#B2B2B2" stroke-width="2"/>
    <circle cx="12" cy="12" r="3" fill="#B2B2B2"/>
</svg>
