<svg width="16" height="21" viewBox="0 0 16 21" fill="none" xmlns="http://www.w3.org/2000/svg">
    <path d="M14 19V9H2V19H14ZM14 7C14.5304 7 15.0391 7.21071 15.4142 7.58579C15.7893 7.96086 16 8.46957 16 9V19C16 19.5304 15.7893 20.0391 15.4142 20.4142C15.0391 20.7893 14.5304 21 14 21H2C0.89 21 0 20.1 0 19V9C0 8.46957 0.210714 7.96086 0.585786 7.58579C0.960859 7.21071 1.46957 7 2 7H11V5C11 4.20435 10.6839 3.44129 10.1213 2.87868C9.55871 2.31607 8.79565 2 8 2C7.20435 2 6.44129 2.31607 5.87868 2.87868C5.31607 3.44129 5 4.20435 5 5H3C3 3.67392 3.52678 2.40215 4.46447 1.46447C5.40215 0.526784 6.67392 0 8 0C8.65661 0 9.30679 0.129329 9.91342 0.380602C10.52 0.631876 11.0712 1.00017 11.5355 1.46447C11.9998 1.92876 12.3681 2.47995 12.6194 3.08658C12.8707 3.69321 13 4.34339 13 5V7H14ZM8 16C7.46957 16 6.96086 15.7893 6.58579 15.4142C6.21071 15.0391 6 14.5304 6 14C6 13.4696 6.21071 12.9609 6.58579 12.5858C6.96086 12.2107 7.46957 12 8 12C8.53043 12 9.03914 12.2107 9.41421 12.5858C9.78929 12.9609 10 13.4696 10 14C10 14.5304 9.78929 15.0391 9.41421 15.4142C9.03914 15.7893 8.53043 16 8 16Z" fill="#B3B3B3"/>
</svg>
