<svg width="25" height="27" viewBox="0 0 25 27" fill="none" xmlns="http://www.w3.org/2000/svg">
    <path d="M5.41477 25.175C5.39587 25.175 5.39587 25.175 5.39587 25.1934C5.39587 25.1934 3.58099 25.783 3.29742 25.8567L3.27851 25.8198C3.2218 25.6909 2.99494 25.2671 2.78698 24.9723C2.73027 24.8986 2.69246 24.8433 2.63575 24.7881C2.40889 24.567 2.1064 24.3459 2.03078 24.2906C2.01188 24.2906 2.01188 24.2722 2.01188 24.2722C1.46363 23.9774 0.896484 23.7932 0.896484 23.7932C0.953199 23.4431 1.27458 21.748 1.27458 21.748L3.16508 22.5771L4.63967 23.7379L5.39587 25.1197L5.41477 25.175Z" fill="#F5ED9E"/>
    <path opacity="0.2" d="M5.41881 25.1734C5.3999 25.1919 5.3999 25.1919 5.41881 25.1734C5.381 25.1919 3.58503 25.763 3.30145 25.8551L3.28255 25.8183C3.22583 25.6893 2.99897 25.2656 2.79102 24.9708L4.11436 24.0864L4.64371 23.7363L5.39991 25.1182L5.41881 25.1734Z" fill="#343521"/>
    <path opacity="0.1" d="M4.62389 23.7553L4.09454 24.1054L2.77119 24.9713C2.71448 24.8976 2.67667 24.8424 2.61996 24.7871C2.3931 24.566 2.09061 24.3449 2.01499 24.2896C1.99609 24.2896 1.99609 24.2712 1.99609 24.2712L3.14929 22.5762L4.62389 23.7553Z" fill="#343521"/>
    <path d="M3.26149 25.8197C3.20477 25.6907 2.97791 25.2669 2.76996 24.9721C2.71324 24.8984 2.67544 24.8432 2.61872 24.7879C2.39186 24.5668 2.08938 24.3457 2.01376 24.2904C1.99485 24.2904 1.99486 24.272 1.99486 24.272C1.44661 23.9772 0.87946 23.793 0.87946 23.793L0.00983568 25.9855C-0.0279743 26.1144 0.0476433 26.2434 0.161073 26.4277C0.161073 26.4277 0.293407 26.5935 0.331217 26.6119C0.331217 26.6119 0.406836 26.6856 0.501361 26.7593C0.520266 26.7777 0.652602 26.8698 0.709317 26.9067C0.747127 26.9251 0.898365 26.9988 1.06851 26.9988C1.33318 26.9988 3.16697 25.8934 3.2804 25.8381L3.26149 25.8197Z" fill="#1A1A1A"/>
    <path d="M24.4902 2.08887C24.4713 2.07044 22.8644 0.725462 22.8644 0.725462C22.751 0.63334 22.4107 0.356973 22.3918 0.338549C22.0704 0.0806069 21.6167 -0.0299397 21.3331 0.00690916C21.1251 0.0253336 20.9172 0.0621825 20.7659 0.228002C20.6714 0.320124 18.5352 2.66003 18.5352 2.66003L22.6564 6.14224C22.6564 6.14224 24.3768 4.28138 24.8494 3.67337C24.9818 3.50755 25.0007 3.28646 25.0007 3.08379C24.9818 2.80742 24.8116 2.36524 24.4902 2.08887Z" fill="#1A1A1A"/>
    <path d="M5.39996 25.1924L4.62486 23.7553L3.15026 22.5945L1.25977 21.7654L18.5389 2.67773L20.1837 3.72793L21.6015 4.94394L22.6602 6.14153L5.39996 25.1924Z" fill="#EF983F"/>
    <path d="M21.6017 4.94648L4.62498 23.7578L3.15039 22.5971L20.1838 3.73047L21.6017 4.94648Z" fill="#EF983F"/>
    <path d="M18.5389 2.67773L1.25977 21.7654L3.15026 22.5945L20.1647 3.72793L18.5389 2.67773Z" fill="#F8C946"/>
    <path d="M22.6623 6.14095L5.42096 25.1734L4.62695 23.7547L21.6036 4.94336L22.6623 6.14095Z" fill="#E66C42"/>
    <rect width="19.3288" height="20.5844" fill="black" fill-opacity="0" transform="translate(3.65234 1.46094)"/>
    <path d="M22.981 19.1329C22.981 19.354 22.8676 19.7041 22.6407 19.962C22.6407 19.962 20.9204 21.4176 20.5801 21.7123C20.2965 21.9519 19.9373 22.0624 19.5592 22.044C19.1811 22.0256 18.8408 21.8597 18.5951 21.5834L13.623 16.1482L17.1583 12.2422L22.584 18.1933C22.8487 18.5065 22.981 18.8197 22.981 19.1329Z" fill="#262626"/>
    <path d="M12.6133 7.06532L9.11588 10.9344L4.04935 5.38869C3.82249 5.11233 3.69015 4.85439 3.65234 4.57802C3.65234 4.54117 3.65234 4.39377 3.65234 4.35693C3.67125 3.98844 3.84139 3.67522 4.12497 3.4357C4.48416 3.14091 6.1667 1.68538 6.1667 1.68538C6.46918 1.50114 6.82838 1.44587 7.05524 1.46429C7.35772 1.50114 7.62239 1.63011 7.88706 1.88805C7.88706 1.9249 11.9516 6.36519 12.6133 7.06532Z" fill="#262626"/>
</svg>
