<svg width="24" height="24" viewBox="0 0 24 24" fill="none" xmlns="http://www.w3.org/2000/svg">
    <path d="M8 0C6.93913 0 5.92172 0.421427 5.17157 1.17157C4.42143 1.92172 4 2.93913 4 4C4 5.06087 4.42143 6.07828 5.17157 6.82843C5.92172 7.57857 6.93913 8 8 8C9.06087 8 10.0783 7.57857 10.8284 6.82843C11.5786 6.07828 12 5.06087 12 4C12 2.93913 11.5786 1.92172 10.8284 1.17157C10.0783 0.421427 9.06087 0 8 0ZM8 9C5.33 9 0 10.33 0 13V16H16V13C16 10.33 10.67 9 8 9ZM8 10.9C10.97 10.9 14.1 12.36 14.1 13V14.1H1.9V13C1.9 12.36 5 10.9 8 10.9Z" transform="translate(7 4)" fill="#B3B3B3"/>
    <path d="M5 3V0H3V3H0V5H3V8H5V5H8V3H5Z" transform="translate(1 4)" fill="#B3B3B3"/>
</svg>
